<?xml version="1.0" encoding="UTF-8"?>
<svg id="shopping" xmlns="http://www.w3.org/2000/svg" viewBox="0 0 769.48 768.69">
  <defs>
    <style>
      .cls-1 {
        fill: #f4f4f4;
      }

      .cls-1, .cls-2, .cls-3, .cls-4, .cls-5, .cls-6, .cls-7 {
        stroke-miterlimit: 10;
      }

      .cls-1, .cls-2, .cls-5, .cls-6, .cls-7 {
        stroke: #ccc;
      }

      .cls-1, .cls-5, .cls-6 {
        stroke-width: 18px;
      }

      .cls-8 {
        fill: #3eb1ff;
      }

      .cls-8, .cls-9, .cls-10, .cls-11, .cls-12, .cls-13, .cls-14, .cls-15 {
        stroke-width: 0px;
      }

      .cls-2 {
        fill: #25ce29;
      }

      .cls-2, .cls-4, .cls-16 {
        stroke-width: 17px;
      }

      .cls-3 {
        stroke-width: 19px;
      }

      .cls-3, .cls-4, .cls-16 {
        stroke: #fff;
      }

      .cls-3, .cls-4, .cls-11 {
        fill: #fff;
      }

      .cls-16 {
        fill: none;
        stroke-linecap: round;
        stroke-linejoin: round;
      }

      .cls-9 {
        fill: #f7f7f7;
      }

      .cls-10 {
        fill: #faa41a;
      }

      .cls-12 {
        fill: #51ce00;
      }

      .cls-5 {
        fill: #1877f2;
      }

      .cls-13 {
        fill: #00cfff;
      }

      .cls-14 {
        fill: #f71132;
      }

      .cls-6 {
        fill: #66f;
      }

      .cls-7 {
        fill: #7752d1;
        stroke-width: 16px;
      }

      .cls-15 {
        fill: #239ac4;
      }
    </style>
  </defs>
  <ellipse class="cls-13" cx="389.36" cy="647.02" rx="335.97" ry="121.68"/>
  <ellipse class="cls-15" cx="589.07" cy="636.78" rx="119.26" ry="34.67"/>
  <ellipse class="cls-15" cx="181.38" cy="605.11" rx="98.14" ry="34.72"/>
  <ellipse class="cls-15" cx="389.36" cy="551.85" rx="89.09" ry="26.51"/>
  <g>
    <rect class="cls-2" x="68.97" y="340.77" width="224.82" height="216.56" rx="33.67" ry="33.67"/>
    <path class="cls-9" d="m190.33,472.22l45.1,38.58v-30.93l-36-30.83,36-30.93v-30.93l-63,54v-15.41l-45.1-38.48v30.93l36,30.83-36,30.93v30.93l63-54v15.31Z"/>
  </g>
  <rect class="cls-7" x="470.86" y="73.52" width="220.19" height="212.1" rx="33.67" ry="33.67"/>
  <g>
    <circle class="cls-16" cx="580.95" cy="179.58" r="73.69"/>
    <line class="cls-16" x1="580.95" y1="105.89" x2="580.95" y2="253.24"/>
    <line class="cls-16" x1="580.95" y1="179.58" x2="528.85" y2="231.68"/>
    <line class="cls-16" x1="580.95" y1="179.58" x2="633.06" y2="231.68"/>
  </g>
  <g>
    <rect class="cls-1" x="260.29" y="201.51" width="230.14" height="221.69" rx="33.67" ry="33.67" transform="translate(687.71 -63.01) rotate(90)"/>
    <polygon class="cls-12" points="464.29 289.11 452.49 313.82 447.5 323.93 441.56 311.84 430.71 289.11 419.19 289.11 441.82 334.2 433.01 351.78 444.21 351.78 474.82 289.11 464.29 289.11"/>
    <path class="cls-14" d="m327.35,313.48c.33,0,3.29-27.16-24.03-27.16-.06,0-.12,0-.18,0-.05,0-.1,0-.15,0h0c-17.52.14-22.94,10.71-24.49,18.57,0,0-.01.01-.02.02-.79,3.87-2.27,15.03,4.47,23.18,0,0,0,0,0,0,3.56,4.24,9.5,7.66,19.38,7.66.05,0,.1,0,.15,0,.06,0,.12,0,.18,0,22.39,0,23.37-14.97,23.37-14.97h-10.53s-1.85,7.48-12.08,7.67c-.25,0-.5,0-.75,0-13.71,0-14.76-14.05-14.81-14.93,0-.03,0-.04,0-.04h39.5Zm-39.17-6.96s.34-6.79,5.74-10.64c.27-.17.55-.34.85-.5-.04,0-.09.02-.13.02,2.06-1.27,4.78-2.11,8.36-2.11,14.15,0,14.15,13.23,14.15,13.23h-28.97Z"/>
    <path class="cls-8" d="m357.13,286.7c-.38-.02-.76-.03-1.14-.03-12.27,0-16.93,7.36-17.11,7.65v-26.1h-11.28v66.85h10.66l.62-4c2.45,2.26,7.37,5.39,15.79,5.39,4.35-.31,8.44-1.36,11.97-3.18,7.43-3.62,12.49-11.1,12.72-21.89,0-15.18-10.5-24.15-22.23-24.69Zm9.4,33.52c-1.95,4.2-5.81,8.41-13.5,8.58-15.47.35-15.47-17.41-15.47-17.41,0,0-.26-6.76,3.58-11.86.95-1.17,2.12-2.23,3.58-3.06.74-.39,13.98-7.24,21.57,5.87,2.16,4.6,1.89,9.75,1.89,9.75,0,0,.07,4-1.64,8.13Z"/>
    <path class="cls-10" d="m424.79,334.37c0-.34-.32-3.73-.33-10.8,0-4.93.16-9.37.14-13.12,0-1.97-.03-3.76-.15-5.33-.33-5.22.33-18.45-21.07-19.5,0,0-20.41-.35-22.71,13.58h10.99c.21-.54.71-1.65,1.56-2.75.81-.99,3.43-3.49,9-3.52.17,0,.33,0,.5,0,4.27.15,7.04,1.15,8.82,2.75.02.01.03.02.05.04,0,0,.02.02.03.03.25.23.48.48.69.74h0s.34.35.72,1.03c.04.06.08.12.11.18,0,0-.01,0-.02,0,.33.62.67,1.47.86,2.56h0c.29,1.37.26,2.42.26,2.42v2.1c-1.59.06-8.57.34-11.19.34-4.18,0-16.45.45-22.15,6.55-1.66,1.64-2.83,3.71-3.2,6.33-1.97,13.93,9.55,18.11,18.76,18.11.05,0,.09,0,.14,0,.06,0,.13,0,.19,0,8.98,0,14.21-2.65,18.12-7.62l.31,6.23h9.54s-.01-.12-.03-.35h.03Zm-26.33-5.22s-9.87,0-10.53-8.36c-.66-9.05,15.14-8.36,15.14-8.36h11.19c.33,0,2.31,17.06-15.8,16.71Z"/>
  </g>
  <g>
    <rect class="cls-6" x="474.82" y="376.01" width="228.51" height="220.12" rx="33.67" ry="33.67"/>
    <path class="cls-3" d="m629.66,509.98c0-20.14.15-39.41.59-49.7h-.44c-4.12,13.82-25,64.55-38.08,97.05h-7.79c-9.85-25.14-31.47-81.61-36.17-97.19h-.29c.73,11.76,1.03,35.73,1.03,53.37v43.82h-7.94v-102.93h11.91c14.12,35.29,31.91,81.46,35.73,93.08h.29c2.35-7.5,22.94-58.81,37.35-93.08h11.76v102.93h-7.94v-47.35Z"/>
    <rect class="cls-4" x="629.44" y="409.45" width="7.09" height="7.09" transform="translate(-51.02 734.53) rotate(-58.3)"/>
  </g>
  <g>
    <rect class="cls-5" x="102.9" y="9" width="221.97" height="223.06" rx="33.67" ry="33.67"/>
    <path class="cls-11" d="m250.07,153.76l4.11-27.84h-25.6v-18.06c0-7.6,3.57-15.05,15.04-15.05h11.65v-23.7s-10.57-1.88-20.66-1.88c-21.1,0-34.87,13.32-34.87,37.47v21.22h-23.44v27.84h23.44v68.47h28.85v-68.47h21.49Z"/>
  </g>
</svg>