<?xml version="1.0" encoding="UTF-8"?>
<svg id="dating" xmlns="http://www.w3.org/2000/svg" viewBox="0 0 769.48 768.69">
  <defs>
    <style>
      .cls-1 {
        fill: #f2ae1d;
      }

      .cls-1, .cls-2, .cls-3, .cls-4, .cls-5 {
        stroke: #ccc;
        stroke-miterlimit: 10;
        stroke-width: 18px;
      }

      .cls-6 {
        fill: #6b4df7;
      }

      .cls-6, .cls-7, .cls-8, .cls-9, .cls-10, .cls-11, .cls-12, .cls-13, .cls-14, .cls-15, .cls-16 {
        stroke-width: 0px;
      }

      .cls-7 {
        fill: #058984;
      }

      .cls-2 {
        fill: #c0daff;
      }

      .cls-8 {
        fill: #493da3;
      }

      .cls-3, .cls-10 {
        fill: #fff;
      }

      .cls-17 {
        fill: none;
        stroke: #000;
        stroke-linecap: round;
        stroke-linejoin: round;
        stroke-width: 27px;
      }

      .cls-9 {
        fill: #ef5f54;
      }

      .cls-4 {
        fill: #fe466c;
      }

      .cls-11 {
        fill: #1a5f78;
      }

      .cls-5 {
        fill: #1d62fc;
      }

      .cls-12 {
        fill: #233560;
      }

      .cls-12, .cls-13 {
        fill-rule: evenodd;
      }

      .cls-13 {
        fill: #af385c;
      }

      .cls-14 {
        fill: #0caeb1;
      }

      .cls-15 {
        fill: #fd9f82;
      }

      .cls-16 {
        fill: #617dc6;
      }
    </style>
  </defs>
  <ellipse class="cls-6" cx="395.36" cy="647.02" rx="341.97" ry="121.68"/>
  <ellipse class="cls-8" cx="202.06" cy="633.67" rx="116.5" ry="37.14"/>
  <ellipse class="cls-8" cx="584.5" cy="596.54" rx="113.05" ry="31.47"/>
  <ellipse class="cls-8" cx="384" cy="548.9" rx="84.56" ry="22.44"/>
  <rect class="cls-1" x="79.64" y="71.34" width="214.06" height="206.2" rx="33.67" ry="33.67" transform="translate(361.11 -12.23) rotate(90)"/>
  <rect class="cls-4" x="261.82" y="207.66" width="233.48" height="224.9" rx="33.67" ry="33.67"/>
  <g id="Layer_2" data-name="Layer 2">
    <path class="cls-10" d="m385.01,235.44c-.84-.42-1.77.29-1.69,1.18,4.22,26.74-1.76,56.33-34.4,67.15-.25,0-.42,0-.59-.17-5.73-7.59-7.17-20.66-7.5-25.63-.08-.97-1.18-1.47-2.02-1.01-59.84,35.53-36.61,128.94,39.63,127.94,43.71,0,73.77-33.72,73.77-71.79,0-49.78-35.54-82.75-67.19-97.67Z"/>
  </g>
  <rect class="cls-3" x="428.72" y="20.18" width="214.06" height="206.2" rx="33.67" ry="33.67"/>
  <path class="cls-17" d="m496.64,71.4v111.45m61-111.45l.75,111.45m-60.17-39.08s9.94-16.54,24.03-18.15c14.97-1.71,30.12,0,45.18,0,0,0,21.09,0,27.11-12.05"/>
  <g id="Layer_2-2" data-name="Layer 2">
    <path class="cls-10" d="m266.2,167.93l-35.88-62c-1.54-2.64-4.37-4.44-7.66-4.44h-71.92c-3.26,0-6.13,1.8-7.66,4.41-3.79,6.55-12.87,22.23-16.55,28.58l-19.38,33.46c-1.58,2.74-1.58,6.11,0,8.85l35.99,62.01c1.54,2.67,4.37,4.44,7.66,4.44h71.81c3.3,0,6.13-1.77,7.66-4.41l35.92-62.04c1.59-2.74,1.59-6.12,0-8.86Zm-99.24-34.85h39.49c11.71.36,11.72,17.36,0,17.73h-39.49c-11.7-.36-11.72-17.37,0-17.73Zm30.75,78.78h-22.02c-4.89,0-8.85-3.96-8.85-8.85s3.96-8.85,8.85-8.85h22.03c11.69.36,11.7,17.34,0,17.7Zm24.78-30.53h-71.62c-11.69-.35-11.73-17.36,0-17.73h71.62c11.7.35,11.73,17.36,0,17.73Z"/>
  </g>
  <rect class="cls-2" x="95.03" y="397.32" width="214.06" height="206.2" rx="33.67" ry="33.67"/>
  <g id="g3098">
    <g id="g2500">
      <path id="path2502" class="cls-14" d="m202.06,453.75c-16.5-16.5-43.25-16.5-59.75,0l29.88,29.88,29.88-29.88"/>
    </g>
    <g id="g2506">
      <path id="path2508" class="cls-7" d="m142.31,513.5l29.88-29.88-29.88-29.88c-16.5,16.5-16.5,43.25,0,59.75h0"/>
    </g>
    <g id="g2512">
      <path id="path2514" class="cls-9" d="m261.82,513.5c16.5-16.5,16.5-43.25,0-59.75l-29.88,29.88,29.88,29.88"/>
    </g>
    <g id="g2518">
      <path id="path2520" class="cls-15" d="m202.06,453.75l29.88,29.88,29.88-29.88c-16.5-16.5-43.25-16.5-59.75,0h0"/>
    </g>
    <g id="g2524">
      <path id="path2526" class="cls-16" d="m231.96,483.63l-29.89-29.88-29.88,29.88,29.88,29.88,29.89-29.88"/>
    </g>
    <g id="g2530">
      <path id="path2532" class="cls-11" d="m172.19,483.63l-29.88,29.88,29.88,29.89,29.88-29.89-29.88-29.88"/>
    </g>
    <g id="g2536">
      <path id="path2538" class="cls-13" d="m202.06,513.5l29.88-29.88,29.88,29.88-29.88,29.88-29.88-29.88"/>
    </g>
    <g id="g2542">
      <path id="path2544" class="cls-12" d="m172.19,543.4l29.88-29.88,29.88,29.88-29.88,29.88-29.88-29.88"/>
    </g>
  </g>
  <rect class="cls-5" x="469.33" y="338.95" width="229.17" height="220.76" rx="33.67" ry="33.67"/>
  <path class="cls-10" d="m548.81,492.01v-6.18l6.89-3.3c.78-.39,1.43-.92,1.96-1.57s.79-1.62.79-2.92v-41.5c0-5.31-.38-9.84-1.14-13.59-.76-3.76-2.23-6.62-4.41-8.6-2.18-1.98-5.45-2.96-9.81-2.96-2.94,0-6.02.61-9.26,1.82-3.24,1.21-5.91,3.52-8.02,6.9v58.19c0,1.19.28,2.07.83,2.67.55.59,1.19,1.09,1.93,1.48l6.4,3.39v6.18h-33.94v-6.18l8.4-3.3c.73-.28,1.37-.76,1.89-1.44.53-.68.79-1.61.79-2.8v-59.8c0-1.24-.27-2.19-.83-2.84-.55-.65-1.26-1.17-2.13-1.57l-8.12-4.15v-6.1l23.55-4.66v14.49h.9c3.99-6.49,7.97-10.64,11.95-12.45,3.97-1.81,7.86-2.71,11.67-2.71,3.21,0,6.25.56,9.12,1.69,2.87,1.13,5.4,3.01,7.61,5.63,2.2,2.63,3.9,6.2,5.1,10.72l1.24,1.19v60.31c0,1.36.28,2.32.83,2.88.55.56,1.19,1.07,1.93,1.53l6.27,3.39v6.18h-32.36Zm46.13,0v-6.18l7.09-3.3c.78-.39,1.43-.92,1.96-1.57s.79-1.62.79-2.92v-41.5c0-5.31-.38-9.84-1.14-13.59s-2.24-6.62-4.44-8.6c-2.2-1.98-5.51-2.96-9.91-2.96-2.85,0-6,.69-9.47,2.07-3.47,1.39-6.25,4.05-8.37,8.01l-1.86-3.98c3.49-5.99,6.72-10.3,9.71-12.96,2.98-2.65,5.79-4.32,8.43-5,2.64-.68,5.15-1.02,7.54-1.02,4.22,0,8.09,1.06,11.6,3.18,3.51,2.12,6.32,5.44,8.43,9.95,2.11,4.52,3.17,10.39,3.17,17.62v48.79c0,1.3.28,2.27.83,2.92.55.65,1.19,1.14,1.93,1.48l7.44,3.39v6.18h-33.74Z"/>
  <path class="cls-10" d="m654.97,492.08l-22.04-21.84c-5.68-5.7-5.68-14.99,0-20.69,2.71-2.74,6.41-4.29,10.28-4.29,3.88,0,7.52,1.51,10.28,4.29l1.49,1.49,1.49-1.49c2.71-2.75,6.41-4.29,10.28-4.29,3.88,0,7.52,1.51,10.28,4.29,5.68,5.7,5.68,14.99,0,20.69l-22.04,21.84Z"/>
</svg>