<?xml version="1.0" encoding="UTF-8"?>
<svg id="Layer_11" data-name="Layer 11" xmlns="http://www.w3.org/2000/svg" viewBox="0 0 769.48 768.69">
  <defs>
    <style>
      .cls-1 {
        fill: #fdf16c;
      }

      .cls-1, .cls-2, .cls-3, .cls-4, .cls-5, .cls-6 {
        stroke-width: 0px;
      }

      .cls-2 {
        fill: #6b4df7;
      }

      .cls-3 {
        fill: #727272;
      }

      .cls-4 {
        fill: #493da3;
      }

      .cls-5 {
        fill: #f98c8c;
        fill-rule: evenodd;
      }

      .cls-7 {
        fill: #d6d6d6;
        stroke: #00cfff;
        stroke-linecap: round;
        stroke-linejoin: round;
        stroke-width: 29px;
      }

      .cls-6 {
        fill: #ccc;
      }
    </style>
  </defs>
  <path class="cls-5" d="m388.46,9.62c11.81,0,21.38,9.57,21.38,21.38v57.02c0,11.81-9.57,21.38-21.38,21.38s-21.38-9.57-21.38-21.38V31.01c0-11.81,9.57-21.38,21.38-21.38ZM81.96,316.12c0-11.81,9.57-21.38,21.38-21.38h57.02c11.81,0,21.38,9.57,21.38,21.38s-9.57,21.38-21.38,21.38h-57.02c-11.81,0-21.38-9.57-21.38-21.38Zm513.21,0c0-11.81,9.57-21.38,21.38-21.38h57.02c11.81,0,21.38,9.57,21.38,21.38s-9.57,21.38-21.38,21.38h-57.02c-11.81,0-21.38-9.57-21.38-21.38Z"/>
  <g>
    <path class="cls-1" d="m150.94,79.92c7.97-8.72,21.49-9.32,30.21-1.35l63.35,57.92c8.72,7.97,9.32,21.49,1.35,30.21-7.97,8.72-21.49,9.32-30.21,1.35l-63.35-57.92c-8.72-7.97-9.32-21.49-1.35-30.21Z"/>
    <path class="cls-1" d="m626.02,79.92c7.97,8.72,7.36,22.24-1.35,30.21l-63.36,57.92c-8.72,7.97-22.24,7.36-30.21-1.35-7.97-8.72-7.36-22.24,1.35-30.21l63.35-57.92c8.72-7.97,22.24-7.36,30.21,1.35Z"/>
    <path class="cls-1" d="m531.76,459.38c8.35-8.35,21.89-8.35,30.24,0l63.35,63.36c8.35,8.35,8.35,21.89,0,30.24-8.35,8.35-21.89,8.35-30.24,0l-63.35-63.36c-8.35-8.35-8.35-21.89,0-30.24Z"/>
    <path class="cls-1" d="m245.2,459.39c8.35,8.35,8.35,21.89,0,30.24l-63.36,63.36c-8.35,8.35-21.89,8.35-30.24,0-8.35-8.35-8.35-21.89,0-30.24l63.36-63.36c8.35-8.35,21.89-8.35,30.24,0Z"/>
  </g>
  <path class="cls-6" d="m222.46,213.18s160-71.33,162.67-71.33,169.33,68.67,169.33,68.67l-33.33,184.67-120.89,128-154.44-144.67-23.33-165.33Z"/>
  <path class="cls-3" d="m568.45,200.25l-172.22-76.54c-4.95-2.2-10.59-2.2-15.54,0l-172.22,76.54c-6.91,3.07-11.37,9.93-11.37,17.49v13.39c.04,128.54,69.73,246.97,182.08,309.42,5.77,3.2,12.79,3.2,18.56,0,112.35-62.45,182.04-180.88,182.08-309.42v-13.39c0-7.56-4.45-14.42-11.37-17.49Zm-26.9,30.88c-.03,110.81-58.13,213.49-153.08,270.6-94.96-57.1-153.05-159.79-153.08-270.6v-.96l153.08-68.05,153.08,68.05v.96Z"/>
  <ellipse class="cls-2" cx="388.46" cy="647.01" rx="293.83" ry="79.48"/>
  <path class="cls-7" d="m388.46,323.91v16.96m-42.4-54.87c4-.24,8.93-.24,15.26-.24h54.27c6.34,0,11.27,0,15.26.24m-84.79,0c-4.99.3-8.53.99-11.55,2.53-4.79,2.44-8.68,6.33-11.12,11.12-2.77,5.44-2.77,12.56-2.77,26.81v11.87c0,14.25,0,21.37,2.77,26.81,2.44,4.79,6.33,8.68,11.12,11.12,5.44,2.77,12.56,2.77,26.81,2.77h54.27c14.25,0,21.37,0,26.81-2.77,4.79-2.44,8.68-6.33,11.12-11.12,2.77-5.44,2.77-12.56,2.77-26.81v-11.87c0-14.25,0-21.37-2.77-26.81-2.44-4.79-6.33-8.68-11.12-11.12-3.02-1.54-6.56-2.22-11.55-2.53m-84.79,0v-17.2c0-23.41,18.98-42.4,42.4-42.4s42.4,18.98,42.4,42.4v17.2"/>
  <ellipse class="cls-4" cx="392.1" cy="622.62" rx="155.9" ry="46.99"/>
</svg>