<?xml version="1.0" encoding="UTF-8"?>
<svg id="Layer_9" data-name="Layer 9" xmlns="http://www.w3.org/2000/svg" viewBox="0 0 769.48 768.69">
  <defs>
    <style>
      .cls-1 {
        fill: #6b4df7;
      }

      .cls-1, .cls-2, .cls-3, .cls-4, .cls-5, .cls-6, .cls-7, .cls-8, .cls-9 {
        stroke-width: 0px;
      }

      .cls-2 {
        fill: #493da3;
      }

      .cls-10 {
        stroke: #ee393b;
      }

      .cls-10, .cls-11 {
        stroke-width: 28px;
      }

      .cls-10, .cls-11, .cls-12 {
        fill: #fff;
        stroke-miterlimit: 10;
      }

      .cls-3 {
        fill: #ffe3c7;
      }

      .cls-4 {
        fill: #868686;
      }

      .cls-5 {
        fill: #ee363c;
      }

      .cls-6 {
        fill: #ccc;
      }

      .cls-7 {
        fill: #3ebfef;
      }

      .cls-11 {
        stroke: #3ebfef;
      }

      .cls-12 {
        stroke: #727272;
        stroke-width: 20px;
      }

      .cls-8 {
        fill: #d1f46e;
      }

      .cls-9 {
        fill: #00cfff;
      }
    </style>
  </defs>
  <ellipse class="cls-1" cx="383.5" cy="637.34" rx="252.99" ry="68.43"/>
  <ellipse class="cls-2" cx="382.4" cy="632.27" rx="120.68" ry="25.07"/>
  <ellipse class="cls-2" cx="211.14" cy="611.14" rx="80.79" ry="24.13" transform="translate(-160.28 81.88) rotate(-16)"/>
  <rect class="cls-12" x="270.46" y="176.82" width="223.88" height="437.19" rx="50.67" ry="50.67"/>
  <rect class="cls-4" x="358.65" y="196.59" width="50.7" height="14.87" rx="7.11" ry="7.11"/>
  <rect class="cls-9" x="301.09" y="275.34" width="164.81" height="229.68" rx="9.17" ry="9.17"/>
  <circle class="cls-10" cx="201.29" cy="211.94" r="81.07"/>
  <path class="cls-5" d="m137.16,308.4c13.56-15.56,27.11-31.12,40.67-46.68,13.45-15.44,26.9-30.87,40.34-46.31,7.65-8.78,15.31-17.57,22.96-26.35l-21.21-21.21c-13.45,15.44-26.9,30.87-40.35,46.31s-26.9,30.87-40.35,46.31c-7.54,8.66-15.09,17.32-22.63,25.98l21.21,21.21c18.54-21.28,37.07-42.55,55.61-63.83s37.07-42.55,55.61-63.83c10.39-11.93,20.78-23.85,31.17-35.78,2.64-3.03,4.39-6.48,4.39-10.61,0-3.68-1.63-8.07-4.39-10.61s-6.61-4.57-10.61-4.39-8.01,1.41-10.61,4.39c-17.62,20.22-35.23,40.44-52.85,60.66-17.56,20.16-35.12,40.32-52.69,60.47-9.9,11.37-19.81,22.73-29.71,34.1l21.21,21.21c18.58-21.33,37.16-42.66,55.74-63.98,18.53-21.26,37.05-42.53,55.58-63.79,10.44-11.98,20.88-23.96,31.32-35.94,2.64-3.03,4.39-6.48,4.39-10.61,0-3.68-1.63-8.07-4.39-10.61s-6.61-4.57-10.61-4.39-8.01,1.41-10.61,4.39c-18.58,21.33-37.16,42.66-55.74,63.98-18.53,21.26-37.05,42.53-55.58,63.79-10.44,11.98-20.88,23.96-31.32,35.94-2.64,3.03-4.39,6.48-4.39,10.61,0,3.68,1.63,8.07,4.39,10.61s6.61,4.57,10.61,4.39,8.01-1.41,10.61-4.39c17.62-20.22,35.23-40.44,52.85-60.66,17.56-20.16,35.12-40.32,52.69-60.47,9.9-11.37,19.81-22.73,29.71-34.1l-21.21-21.21c-18.54,21.28-37.07,42.55-55.61,63.83-18.54,21.28-37.07,42.55-55.61,63.83-10.39,11.93-20.78,23.85-31.17,35.78-2.64,3.03-4.39,6.48-4.39,10.61,0,3.68,1.63,8.07,4.39,10.61s6.61,4.57,10.61,4.39,8.01-1.41,10.61-4.39c13.45-15.44,26.9-30.87,40.35-46.31s26.9-30.87,40.35-46.31c7.54-8.66,15.09-17.32,22.63-25.98,2.64-3.03,4.39-6.48,4.39-10.61,0-3.68-1.63-8.07-4.39-10.61s-6.61-4.57-10.61-4.39-8.01,1.41-10.61,4.39c-13.56,15.56-27.11,31.12-40.67,46.68-13.45,15.44-26.9,30.87-40.34,46.31-7.65,8.78-15.31,17.57-22.96,26.35-2.64,3.03-4.39,6.48-4.39,10.61,0,3.68,1.63,8.07,4.39,10.61s6.61,4.57,10.61,4.39,8.01-1.41,10.61-4.39h0Z"/>
  <polygon class="cls-1" points="434.72 453.58 333.28 453.58 334.44 419.97 337.26 338.4 430.74 338.4 432.7 395.03 434.72 453.58"/>
  <path class="cls-3" d="m433.93,359.79l64.47,64.3,29.61-3.51,28.52,22.62c27.54,5.26,52.37,24.2,52.37,24.2l45.75,154.67,8.43,22-48.22-3.14-78.72,13.73-59.76-51.5-38.79-76.83-8.24-68.54,11.5,1.17,8.2,5.3,15.33,38.19,34.67,35.44-4.62-40.68-47.96-83.28-18.12-25.79-4.56-16.39c-.71-6.83,3.37-10.81,10.14-11.99h0Z"/>
  <path class="cls-8" d="m407.44,354.99h0c-1.64,0-2.97-1.33-2.97-2.97v-10.79c0-11.18-8.8-20.58-19.98-20.85-11.51-.27-20.96,9.01-20.96,20.47v11.18c0,1.64-1.33,2.97-2.97,2.97h0c-1.64,0-2.97-1.33-2.97-2.97v-10.73c0-14.46,11.44-26.58,25.9-26.85,14.8-.28,26.92,11.67,26.92,26.41v11.18c0,1.64-1.33,2.97-2.97,2.97Z"/>
  <rect class="cls-6" x="509.57" y="623.05" width="164.37" height="68.57" rx="12.67" ry="12.67" transform="translate(-59.7 59.11) rotate(-5.44)"/>
  <circle class="cls-11" cx="563.6" cy="209.76" r="83.26"/>
  <path class="cls-7" d="m503.96,220.62c5.56,3.11,10.97,6.49,16.16,10.18,1.23.88,2.45,1.77,3.65,2.68,2.43,1.83-2.01-1.61-.1-.08.55.44,1.1.87,1.64,1.31,2.53,2.06,5,4.2,7.39,6.43,2.29,2.14,4.5,4.36,6.61,6.67,1.01,1.1,2,2.23,2.97,3.37.59.7,1.17,1.41,1.75,2.12.59.74,1.73,2.72-.32-.43,1.73,2.65,3.69,5.13,5.33,7.85,1.61,2.68,3.06,5.44,4.35,8.28,1.81,3.98,6.91,6.34,11.06,6.34s9.34-2.34,11.06-6.34c6.78-15.81,14.19-31.24,23.79-45.56,5.02-7.49,10.26-14.83,15.68-22.03,1.21-1.6,2.42-3.2,3.65-4.79.97-1.26-1.72,2.22-.76.98.27-.35.54-.7.82-1.05.6-.77,1.19-1.53,1.79-2.29,2.09-2.65,4.2-5.28,6.33-7.89,11.76-14.42,23.82-28.44,37.73-40.87,3.05-2.73,6.17-5.38,9.37-7.95.83-.67,1.66-1.36,2.52-1.99-.06.04-2.66,2.02-1.06.82.43-.32.86-.65,1.29-.97,1.64-1.23,3.31-2.43,4.99-3.6,6.76-4.69,13.07-8.91,21.44-12.12-1.02.43-2.04.86-3.06,1.29,1.3-.54,2.6-1.06,3.92-1.55,3.19-1.17,5.98-4.44,7.62-6.79,1.82-2.61,1.62-5.74,1.32-8.96-.52-5.56-5.02-14.96-17.41-9.57-15.54,6.77-28.13,15.86-41.18,26.53-10.18,8.32-19.66,17.51-28.47,27.25-4.72,5.22-9.15,10.71-13.64,16.12-10.43,12.57-20.45,25.53-29.81,38.92-5.93,8.48-11.54,17.13-16.39,26.27-4.64,8.74-8.68,17.78-12.58,26.87h22.11c-5.69-12.53-14.67-23.68-24.68-33.04-10.19-9.53-21.75-17.72-33.92-24.52-5.85-3.27-14.25-1.6-17.52,4.59-3.19,6.04-1.65,14.03,4.59,17.52Z"/>
</svg>