<svg id="Logo" xmlns="http://www.w3.org/2000/svg" viewBox="0 0 1880.1 617.3"><defs><style>.cls-1{fill:#3fc0ef}</style></defs><path class="cls-1" d="M781 601q12 2 9 17-3 10-12 24a117 117 0 01-24 26l-31 23-39 24-47 24a390 390 0 01-52 18c-38 11-73 14-104 8q-36-6-57-33a71 71 0 01-14-61c7-35 30-66 67-94q50-37 112-54c26-7 47-10 64-8q21 2 32 15 13 15 8 37c-6 23-27 46-64 70q-8 6-15 9l-9 6c-18 10-43 20-76 31q12 11 23 12a65 65 0 0023 0 190 190 0 0023-6l30-12q16-6 33-15c26-13 82-94 102-109 11-8-9 53 6 49a37 37 0 0112-1zm-267 43l13-6 12-5 59-31 8-9a19 19 0 000-7 23 23 0 00-2-7q-3-8-9-9a40 40 0 00-14 1 85 85 0 00-16 6 106 106 0 00-31 21c-10 10-15 17-17 25l-3 21z" transform="translate(-20 -233)"/><path class="cls-1" d="M977 616q-1 25 13 25c23-1 54-31 93-66l8 5q23-16 37-17c9 0 15 1 18 3q4 5 3 14-1 22-23 47c-22 27-51 52-87 76-41 27-77 40-107 40-21 0-34-12-39-37a161 161 0 01-2-19q-2-21-5-24-3-2-11 1a115 115 0 00-19 10l-24 16-80 59c-16 11-26 17-32 17a35 35 0 01-16-4 49 49 0 01-13-10q-12-13-12-26c1-52 15-98 36-139 14-27 30-46 50-58a74 74 0 0134-10c22-2 33 6 32 22 0 10-8 26-19 49l-8 16q-8 16-8 19 1 7 6 7 6 0 17-9l46-39 23-19c28-21 56-33 69-34q10-1 19 8c10 10 7 21 7 29a87 87 0 01-1 10l-2 12-2 13a113 113 0 00-1 13z" transform="translate(-20 -233)"/><path class="cls-1" d="M1156 606c-25 15-36 29-35 46 1 7 5 11 14 11 8 0 33-10 59-27l23-15q24-17 40-31l14-43q27-78 59-132c25-42 56-78 92-82q21-3 32 4 22 11 20 28-1 17-8 36c-5 13-10 20-18 32a425 425 0 01-24 38l-34 43-23 32q-19 37-20 63c-1 25 7 37 24 36 10 0 29-12 57-34l37-31q26-24 51-34l12-4q14 0 13 14c-1 14-12 36-34 63-15 19-44 45-87 79-49 38-88 56-115 56-21 1-36-8-45-26q-9-16-13-47l-25 18c-65 47-119 67-149 67-24 0-43-10-56-29-12-17-10-34-9-58 1-26 11-45 31-67 33-36 38-35 65-53 21-13 94-40 100-41a39 39 0 0116 2 77 77 0 0115 8q17 11 16 23 0 10-12 17" transform="translate(-20 -233)"/><path class="cls-1" d="M1438 667a23 23 0 01-11-3 25 25 0 01-9-7c-6-8-17-3-16-17 1-15 33-39 47-66 24-47 65-76 79-83 32-15 33-17 53-18 17-2 29 2 35 11l4 6q4 8 9 7l16-2 46-6 17-2q6 0 14 3a42 42 0 0114 10q12 15 11 33c-1 13-18 33-50 61l-23 21c-16 15-25 24-25 28q0 5 5 9a18 18 0 0012 4q7 0 16-3l22-11 30-17 65-41 30-19c21-13 35-20 44-21q13-1 20 4 8 4 7 16t-17 33a242 242 0 01-33 36l-33 27q-16 13-37 27-20 15-45 29a457 457 0 01-51 26c-39 17-74 25-105 25-44 0-69-10-77-31a49 49 0 01-3-22 83 83 0 017-25 183 183 0 0114-28 257 257 0 0140-49c13-13 20-20 20-23q0-5-6-7h-19c-4 0-12 5-25 16l-30 27c-33 28-53 41-62 42zM471 850H98a78 78 0 01-78-77V400a78 78 0 0178-78l429 4-48 46H98a28 28 0 00-28 28v373a28 28 0 0028 27h373a28 28 0 0025-17l2-3s11 3 21 2a20 20 0 012 0h3a118 118 0 0024-3l-1 7a78 78 0 01-76 64z" transform="translate(-20 -233)"/><path class="cls-1" d="M548 520l-15 7-17 9-18 9v-22l19-24 13-14 18-22z" transform="translate(-20 -233)"/><path class="cls-1" d="M114 618a527 527 0 0149 30l11 9c7 5-6-5-1-1l5 4q12 9 23 20 10 9 19 20 5 4 9 10l6 6c1 2 5 8-1-1l16 23a243 243 0 0113 25c5 12 20 19 33 19 12 0 28-7 33-19 20-47 43-94 71-137l48-66 11-14c2-4-6 6-3 3l3-3 5-7 19-24c35-43 72-85 113-123l29-24 7-6c0 1-8 6-3 3l4-3 15-11c20-14 39-27 64-36l-9 4 12-5c9-4 18-13 23-20 5-8 5-18 4-27-2-17-15-45-53-29-46 20-84 48-123 80a787 787 0 00-86 81l-41 49c-31 38-61 77-89 117a764 764 0 00-87 159h66c-17-37-44-71-74-99-31-28-65-53-102-74-18-9-43-4-53 14-9 18-5 42 14 53z" transform="translate(-20 -233)"/></svg>