<?xml version="1.0" encoding="UTF-8"?>
<svg id="Layer_2" data-name="Layer 2" xmlns="http://www.w3.org/2000/svg" viewBox="0 0 673.36 752.66">
  <defs>
    <style>
      .cls-1 {
        fill: #e0edf0;
      }

      .cls-1, .cls-2, .cls-3, .cls-4, .cls-5, .cls-6, .cls-7 {
        stroke-width: 0px;
      }

      .cls-2 {
        fill: #6b4df7;
      }

      .cls-3 {
        fill: #493da3;
      }

      .cls-4 {
        fill: #ccc;
      }

      .cls-5 {
        fill: #e2e2e2;
      }

      .cls-6 {
        fill: #bcbcbc;
      }

      .cls-7 {
        fill: #d1f46e;
      }

      .cls-8 {
        fill: #39d0ff;
        stroke: #c1c1c1;
        stroke-miterlimit: 10;
        stroke-width: 5px;
      }
    </style>
  </defs>
  <ellipse class="cls-2" cx="351.53" cy="658.73" rx="308.81" ry="93.94"/>
  <ellipse class="cls-3" cx="424.04" cy="639.86" rx="153.66" ry="59.77" transform="translate(-94.32 73.7) rotate(-8.94)"/>
  <path class="cls-5" d="m349.1,676.21c-8.99,0-16.41-6.33-16.41-13.98v-162.11c0-7.66,7.43-13.98,16.41-13.98s16.41,6.33,16.41,13.98v162.11c0,7.66-7.34,13.98-16.41,13.98Z"/>
  <path class="cls-4" d="m343.79,671.05c-6.1,0-11.1-3.91-11.1-8.67v-163.44c0-4.77,5-8.67,11.1-8.67s11.1,3.91,11.1,8.67v163.36c.1,4.84-4.9,8.75-11.1,8.75h0Z"/>
  <path class="cls-5" d="m477.47,465.66c127.97-78.75,167.81-246.33,88.98-374.3L103.17,376.68c78.75,127.89,246.33,167.81,374.3,88.98Zm-18.05,236.56c-7.73-35-51.56-61.72-104.45-61.72s-96.64,26.8-104.45,61.72h208.91Z"/>
  <path class="cls-4" d="m371.45,641.36c-5.39-.55-10.86-.86-16.48-.86-52.89,0-96.64,26.8-104.45,61.72h32.89c7.03-31.25,42.81-55.94,88.05-60.86Z"/>
  <path class="cls-6" d="m67.94,393.47l-1.56-2.58c-1.25-2.03-.63-4.77,1.48-6.02L580.05,70.82c2.03-1.25,4.77-.63,6.02,1.48l1.56,2.58c1.25,2.03.62,4.77-1.48,6.02L73.95,394.96c-2.03,1.25-4.77.55-6.02-1.48h0Z"/>
  <path class="cls-1" d="m347.31,110.03h36.8c2.73,0,4.92-2.19,4.92-4.92v-1.64c0-2.73-2.19-4.92-4.92-4.92h-36.8c-2.73,0-4.92,2.19-4.92,4.92v1.64c0,2.73,2.19,4.92,4.92,4.92Zm-12.81,22.27h36.8c2.73,0,4.92-2.19,4.92-4.92v-1.64c0-2.73-2.19-4.92-4.92-4.92h-36.8c-2.73,0-4.92,2.19-4.92,4.92v1.64c0,2.66,2.19,4.92,4.92,4.92h0Z"/>
  <path class="cls-1" d="m367.08,116.68v-1.64c0-2.73,2.19-4.92,4.92-4.92h6.87c-.62-.31-1.33-.47-2.11-.47h-20.08c2.03.63,3.52,2.5,3.52,4.69v1.64c0,2.73-2.19,4.92-4.92,4.92h-16.72c.47.16.94.23,1.41.23h29.84c-1.56-.78-2.73-2.5-2.73-4.45h0Z"/>
  <path class="cls-8" d="m103.09,236.99c-.05,129.48,104.89,234.49,234.37,234.54,129.48.05,234.49-104.89,234.54-234.37v-.16c.02-129.48-104.93-234.47-234.42-234.49-129.48-.02-234.47,104.93-234.49,234.42v.07h0Z"/>
  <path class="cls-7" d="m473.79,65.7c-13.34,15.4-24.32,15.15-19.99,28.08,9.21,24.88,20.3,46.71,41.11,66.44,10.7,10.11-14.58,67.92,8.89,81.33,18.67,10.67-.16,69.59-11.22,81.22-24.64,25.6-11,79.33-11,79.33,12.78-2.07,20.23-12.72,28.51-22.66,32.16-38.64,51.53-88.33,51.53-142.51,0-94.15-84.83-173.15-87.83-171.24ZM174.24,212.46c7.77-36.72,7.94-62.54-12.12-85.9-10.88-12.67-25.81,17.02-25.81,17.02,0,0-20.8,58.91-20.8,93.37,0,87.21,50.01,162.7,122.98,199.31,3.71-2.51,7.3-5.38,10.53-8.61,22.25-22.73-21.56-45.24-40.11-71.08-18.54-26.08-42.3-108.02-34.67-144.1Z"/>
  <polygon class="cls-2" points="426.94 356.56 257.84 356.56 259.78 300.54 264.48 164.56 420.3 164.56 423.56 258.96 426.94 356.56"/>
  <path class="cls-7" d="m382.13,185.21h0c-2.73,0-4.95-2.22-4.95-4.95v-17.99c0-18.63-14.67-34.31-33.3-34.75-19.19-.45-34.95,15.02-34.95,34.11v18.63c0,2.73-2.22,4.95-4.95,4.95h0c-2.73,0-4.95-2.22-4.95-4.95v-17.89c0-24.11,19.07-44.3,43.18-44.76,24.66-.47,44.88,19.46,44.88,44.02v18.63c0,2.74-2.22,4.95-4.95,4.95Z"/>
  <path class="cls-7" d="m341.13,36.68c-20.22,17.33-18.67,8.89-40.89,8.89-10.51,0-16.61,17.07-23.78,12.73-7.98-4.83-23.56-2.15-23.56-9.84,0-6.65.62-14.25,6.79-18.89,7.37-5.55,23.59-11.75,35.48-13.82,6.41-1.12,24.51-3.76,29.95-1.95,13.12,4.35,23.84,16.17,16,22.89Z"/>
</svg>