<?xml version="1.0" encoding="UTF-8"?>
<svg id="Layer_4" data-name="Layer 4" xmlns="http://www.w3.org/2000/svg" viewBox="0 0 673.36 752.66">
  <defs>
    <style>
      .cls-1 {
        fill: #676767;
      }

      .cls-1, .cls-2, .cls-3, .cls-4, .cls-5, .cls-6, .cls-7, .cls-8, .cls-9, .cls-10, .cls-11, .cls-12 {
        stroke-width: 0px;
      }

      .cls-2 {
        fill: #fcd18b;
      }

      .cls-3 {
        fill: #6b4df7;
      }

      .cls-4 {
        fill: #727272;
      }

      .cls-5 {
        fill: #868686;
      }

      .cls-6 {
        fill: #2c84aa;
      }

      .cls-7 {
        fill: #ccc;
      }

      .cls-8 {
        fill: #e2e2e2;
      }

      .cls-9 {
        fill: #39d0ff;
      }

      .cls-10 {
        fill: #d1f46e;
      }

      .cls-11 {
        fill: #838383;
      }

      .cls-12 {
        fill: #5b97b0;
      }
    </style>
  </defs>
  <path class="cls-7" d="m562.24,325.21v246.95H112.91v-246.95c0-15.66,12.69-28.37,28.37-28.37h392.6c15.66,0,28.37,12.7,28.37,28.37"/>
  <polyline class="cls-9" points="531.17 327.92 531.17 541.09 143.99 541.09 143.99 327.92 531.17 327.92"/>
  <path class="cls-8" d="m533.88,296.85h-242.91l7.65,25.11h194.46l.11,3.37.09,2.6h37.88v213.17h-165.77l8.71,28.59h188.13v-244.46c0-15.66-12.7-28.37-28.37-28.37"/>
  <polyline class="cls-1" points="298.62 321.96 232.23 321.96 232.03 327.92 300.44 327.92 298.62 321.96"/>
  <path class="cls-6" d="m396.68,327.92h-68.41l-2.22,64.27-2.65,76.56c-1.41.97-2.84,1.92-4.3,2.82l-78.87,51.4v18.12h90.12l25.56-16.79c3.04-2,6.58-3.06,10.19-3.06.92,0,1.84.07,2.76.21l87.84,13.28c1.03.16,2.07.27,3.1.33l-14.83-48.67-24.24-4.11h22.99l-47.04-154.36"/>
  <polyline class="cls-11" points="493.08 321.96 298.62 321.96 300.44 327.92 493.28 327.92 493.19 325.33 493.08 321.96"/>
  <path class="cls-12" d="m539.67,327.92h-142.99l48.29,158.47,14.83,48.67c.79.05,1.59.08,2.38.08,6.92,0,13.75-1.96,19.67-5.69l50.64-36.56"/>
  <polygon class="cls-3" points="594.87 457.17 322.94 457.17 326.06 367.08 333.61 148.41 584.19 148.41 589.44 300.22 594.87 457.17"/>
  <path class="cls-2" d="m556.23,465.44l-74.37,47c-7.48,4.72-16.41,6.6-25.15,5.28l-87.84-13.28c-4.52-.68-9.14.34-12.95,2.85l-51.44,33.8h-103.94s118.57-86.53,118.57-86.53c6.3-3.89,12.14-8.45,17.39-13.61,5.25-5.17,9.92-10.91,13.91-17.15,7.01-10.96,19.15-17.71,32.17-17.46,2.96.05,5.92.37,8.86.96l78.19,15.67c6.13,1.23,10.34,6.63,10.34,12.6,0,1.02-.12,2.06-.39,3.11-1.62,6.49-7.94,10.67-14.54,9.58l-49.29-8.01c-.65-.1-1.29-.16-1.93-.16-6.05,0-11.3,4.62-11.86,10.85-.56,6.2,3.74,11.78,9.88,12.83l56.56,9.58c5.02.85,10.19-.04,14.64-2.5l57.55-31.82c2.35-1.29,4.9-1.91,7.41-1.91,5.08,0,10.03,2.52,12.95,7.1,4.57,7.16,2.45,16.68-4.74,21.22Z"/>
  <path class="cls-10" d="m521.74,192.87h0c-4.4,0-7.96-3.56-7.96-7.96v-28.93c0-29.97-23.59-55.18-53.55-55.89-30.86-.73-56.2,24.16-56.2,54.86v29.96c0,4.4-3.56,7.96-7.96,7.96h0c-4.4,0-7.96-3.56-7.96-7.96v-28.77c0-38.77,30.67-71.24,69.43-71.98,39.66-.75,72.17,31.29,72.17,70.79v29.96c0,4.4-3.56,7.97-7.96,7.97Z"/>
  <path class="cls-4" d="m594.87,569.68c0,19.57-15.86,35.43-35.43,35.43H115.71c-9.78,0-18.63-3.96-25.05-10.38-6.41-6.4-10.38-15.26-10.38-25.05h514.59"/>
  <path class="cls-5" d="m594.87,569.68h-255.12l10.8,35.43h208.89c19.57,0,35.43-15.86,35.43-35.43"/>
</svg>