<?xml version="1.0" encoding="UTF-8"?>
<svg id="Layer_1" data-name="Layer 1" xmlns="http://www.w3.org/2000/svg" viewBox="0 0 673.36 752.66">
  <defs>
    <style>
      .cls-1 {
        opacity: .6;
      }

      .cls-1, .cls-2, .cls-3, .cls-4, .cls-5, .cls-6, .cls-7, .cls-8, .cls-9 {
        stroke-width: 0px;
      }

      .cls-1, .cls-8 {
        fill: #d1f46e;
      }

      .cls-2, .cls-3 {
        fill: #6b4df7;
      }

      .cls-3 {
        opacity: .7;
      }

      .cls-4 {
        fill: #333;
      }

      .cls-5 {
        fill: #fff;
      }

      .cls-6 {
        fill: #f9f1d9;
      }

      .cls-7 {
        fill: #e2e2e2;
      }

      .cls-9 {
        fill: #00cfff;
      }
    </style>
  </defs>
  <path class="cls-8" d="m238.59,325.7l-18.44-45.86c-2.97-7.42-.86-15.86,5.23-20.94l37.89-31.72c6.09-5.08,14.84-5.7,21.56-1.48l41.88,26.25c6.72,4.22,10,12.34,8.05,20.08l-12.03,47.97c-1.95,7.73-8.67,13.36-16.56,13.91l-49.3,3.36c-7.89.47-15.31-4.14-18.28-11.56Z"/>
  <path class="cls-8" d="m431.25,327.02l19.92-49.53c2.5-6.33.7-13.52-4.45-17.89l-40.94-34.22c-5.23-4.38-12.66-4.84-18.36-1.25l-45.23,28.36c-5.78,3.59-8.52,10.55-6.87,17.11l12.97,51.8c1.64,6.56,7.34,11.41,14.14,11.8l53.2,3.67c6.8.39,13.12-3.52,15.62-9.84h0Z"/>
  <path class="cls-2" d="m305.94,250.77c0,17.78,14.41,32.19,32.19,32.19s32.19-14.41,32.19-32.19c0-17.78-14.4-32.19-32.17-32.2-17.78,0-32.19,14.4-32.2,32.17v.03h0Z"/>
  <path class="cls-6" d="m342.11,240.38c0,4.83,3.92,8.75,8.75,8.75s8.75-3.92,8.75-8.75-3.92-8.75-8.75-8.75-8.75,3.92-8.75,8.75Z"/>
  <path class="cls-4" d="m326.87,304.6l-7.19,28.98-86.41-82.81,22.34-17.19,71.25,71.02Zm89.84-70l41.02,34.77-105.86,65.47-7.66-29.69,72.5-70.55Z"/>
  <path class="cls-2" d="m204.06,438.51l-116.8-122.19c-8.59-8.98-8.28-23.2.7-31.72l89.77-85.78c8.98-8.59,23.2-8.28,31.72.7l116.8,122.19c8.59,8.98,8.28,23.2-.7,31.72l-89.77,85.78c-8.98,8.59-23.2,8.2-31.72-.7h0Z"/>
  <path class="cls-7" d="m0,399.45c0,83.71,67.86,151.56,151.56,151.56s151.56-67.86,151.56-151.56h0c0-83.71-67.86-151.56-151.56-151.56S0,315.74,0,399.45h0Z"/>
  <path class="cls-9" d="m31.76,399.45c-.01,66.17,53.62,119.81,119.78,119.82,66.17.01,119.81-53.62,119.82-119.78v-.04c.01-66.17-53.62-119.81-119.78-119.82-66.17-.01-119.81,53.62-119.82,119.78v.04Z"/>
  <path class="cls-2" d="m469.3,438.51l116.8-122.19c8.59-8.98,8.28-23.2-.7-31.72l-89.77-85.86c-8.98-8.59-23.2-8.28-31.72.7l-116.8,122.19c-8.59,8.98-8.28,23.2.7,31.72l89.77,85.86c8.98,8.59,23.2,8.2,31.72-.7h0Z"/>
  <path class="cls-7" d="m370.23,399.45c0,83.71,67.86,151.56,151.56,151.56s151.56-67.86,151.56-151.56h0c0-83.71-67.86-151.56-151.56-151.56s-151.56,67.86-151.56,151.56h0Z"/>
  <path class="cls-9" d="m401.99,399.45c-.01,66.17,53.62,119.81,119.78,119.82,66.17.01,119.81-53.62,119.82-119.78v-.04c.01-66.17-53.62-119.81-119.78-119.82-66.17-.01-119.81,53.62-119.82,119.78v.04Z"/>
  <path class="cls-5" d="m139.45,307.84c1.37,1.51,3.39,2.24,5.41,2.09,2.24-.14,4.4-.22,6.64-.22,49.34,0,89.51,40.17,89.51,89.51,0,4.69-.36,9.3-1.08,13.85-.29,2.02.29,4.04,1.66,5.55,3.75,4.11,10.6,2.02,11.47-3.46.79-5.19,1.23-10.46,1.23-15.87,0-56.69-46.09-102.78-102.78-102.78-2.6,0-5.19.07-7.72.29-5.48.36-8.08,7-4.33,11.04Z"/>
  <path class="cls-5" d="m234.51,438.61c0,3.98,3.23,7.21,7.21,7.21s7.21-3.23,7.21-7.21-3.23-7.21-7.21-7.21-7.21,3.23-7.21,7.21Z"/>
  <path class="cls-5" d="m509.9,308.06c1.37,1.51,3.39,2.24,5.41,2.09,2.24-.14,4.4-.22,6.64-.22,49.34,0,89.51,40.17,89.51,89.51,0,4.69-.36,9.3-1.08,13.85-.29,2.02.29,4.04,1.66,5.55,3.75,4.11,10.6,2.02,11.47-3.46.79-5.19,1.23-10.46,1.23-15.87,0-56.69-46.09-102.78-102.78-102.78-2.6,0-5.19.07-7.72.29-5.55.36-8.08,7-4.33,11.04Z"/>
  <path class="cls-5" d="m604.89,438.83c0,3.98,3.23,7.21,7.21,7.21s7.21-3.23,7.21-7.21-3.23-7.21-7.21-7.21-7.21,3.23-7.21,7.21Z"/>
  <polygon class="cls-3" points="189.55 456.01 103.61 456.01 104.6 427.53 106.98 358.43 186.17 358.43 187.83 406.41 189.55 456.01"/>
  <path class="cls-1" d="m166.44,372.48h0c-1.39,0-2.52-1.13-2.52-2.52v-9.14c0-9.47-7.46-17.44-16.92-17.66-9.75-.23-17.76,7.64-17.76,17.34v9.47c0,1.39-1.13,2.52-2.52,2.52h0c-1.39,0-2.52-1.13-2.52-2.52v-9.09c0-12.25,9.69-22.51,21.94-22.75,12.53-.24,22.81,9.89,22.81,22.37v9.47c0,1.39-1.13,2.52-2.52,2.52Z"/>
  <polygon class="cls-3" points="564.76 456.01 478.83 456.01 479.82 427.53 482.2 358.43 561.39 358.43 563.05 406.41 564.76 456.01"/>
  <path class="cls-1" d="m541.65,372.48h0c-1.39,0-2.52-1.13-2.52-2.52v-9.14c0-9.47-7.46-17.44-16.92-17.66-9.75-.23-17.76,7.64-17.76,17.34v9.47c0,1.39-1.13,2.52-2.52,2.52h0c-1.39,0-2.52-1.13-2.52-2.52v-9.09c0-12.25,9.69-22.51,21.94-22.75,12.53-.24,22.81,9.89,22.81,22.37v9.47c0,1.39-1.13,2.52-2.52,2.52Z"/>
</svg>