<svg id="svg" version="1.1" xmlns="http://www.w3.org/2000/svg" xmlns:xlink="http://www.w3.org/1999/xlink" width="400" height="380" viewBox="0, 0, 400,380"><g id="svgg"><path id="path0" d="M188.023 5.555 C 159.193 11.513,139.363 31.662,134.367 60.076 C 133.832 63.123,133.696 67.883,133.501 90.494 C 133.248 119.800,133.369 118.301,131.061 120.824 C 129.290 122.762,128.500 122.813,100.596 122.820 C 60.244 122.829,53.554 124.043,38.468 134.089 C -7.655 164.805,5.177 237.756,58.935 250.444 C 66.322 252.187,66.174 252.179,97.529 252.426 L 127.567 252.662 129.378 253.554 C 130.682 254.196,131.481 254.942,132.230 256.215 L 133.270 257.985 133.494 286.312 C 133.778 322.293,134.548 327.190,141.972 340.242 C 170.451 390.313,245.638 381.176,260.606 325.824 C 262.878 317.420,262.856 317.767,263.091 286.882 L 263.308 258.365 264.160 256.771 C 266.497 252.399,265.873 252.471,301.017 252.471 C 342.484 252.471,349.084 251.337,363.498 241.729 C 409.764 210.891,398.739 140.837,345.180 125.330 C 337.581 123.131,336.818 123.087,301.331 122.846 L 268.631 122.624 266.941 121.673 C 265.724 120.989,264.978 120.192,264.279 118.832 L 263.308 116.942 263.089 89.935 C 262.835 58.538,262.608 56.434,258.323 45.753 C 247.132 17.864,215.629 -0.149,188.023 5.555 " stroke="none" fill="#6cd3f4" fill-rule="evenodd"></path><path id="path1" d="M0.000 190.114 L 0.000 380.228 200.000 380.228 L 400.000 380.228 400.000 190.114 L 400.000 0.000 200.000 0.000 L 0.000 0.000 0.000 190.114 M207.618 5.348 C 233.501 10.009,253.764 28.039,260.576 52.471 C 262.850 60.629,262.852 60.658,263.089 89.935 L 263.308 116.942 264.279 118.832 C 264.978 120.192,265.724 120.989,266.941 121.673 L 268.631 122.624 301.331 122.846 C 336.818 123.087,337.581 123.131,345.180 125.330 C 398.739 140.837,409.764 210.891,363.498 241.729 C 349.084 251.337,342.484 252.471,301.017 252.471 C 265.873 252.471,266.497 252.399,264.160 256.771 L 263.308 258.365 263.091 286.882 C 262.903 311.578,262.787 315.858,262.224 318.821 C 250.687 379.557,172.277 393.524,141.972 340.242 C 134.548 327.190,133.778 322.293,133.494 286.312 L 133.270 257.985 132.230 256.215 C 131.481 254.942,130.682 254.196,129.378 253.554 L 127.567 252.662 97.529 252.426 C 66.174 252.179,66.322 252.187,58.935 250.444 C 5.177 237.756,-7.655 164.805,38.468 134.089 C 53.554 124.043,60.244 122.829,100.596 122.820 C 128.500 122.813,129.290 122.762,131.061 120.824 C 133.369 118.301,133.248 119.800,133.501 90.494 C 133.770 59.287,134.003 57.035,138.047 46.443 C 148.623 18.749,179.793 0.337,207.618 5.348 " stroke="none" fill="none" fill-rule="evenodd"></path></g></svg>
