<svg xmlns="http://www.w3.org/2000/svg" id="Layer_1" data-name="Layer 1" viewBox="0 0 730.7 664"><defs><linearGradient id="linear-gradient" x1="365.4" x2="365.4" y1="169" y2="654.5" gradientUnits="userSpaceOnUse"><stop offset="0" stop-color="#fff" stop-opacity=".5"/><stop offset="1" stop-color="#8fd7f2"/></linearGradient><style>.cls-3{stroke-width:0;fill:#3fc0ef}</style></defs><path d="M559 654H166L0 169h731L559 654z" style="stroke-width:0;fill:url(#linear-gradient)"/><path d="M550 664H179c-10 0-19-5-26-11-11-8-19-19-23-31l-13-34 493 2-6 22c-6 15-15 29-27 39-8 7-18 13-27 13Z" style="fill:#1e1e1e;stroke-width:0"/><path d="M546 620H183c-40 0-72-33-72-73l65-465c8-43 33-72 73-72h233c40 0 64 32 72 72l65 465c0 40-33 73-73 73Z" style="fill:#fff;stroke:#303131;stroke-miterlimit:10;stroke-width:19px"/><rect width="117.2" height="24.6" x="307.3" y="23" rx="12.3" ry="12.3" style="fill:#414242;stroke-width:0"/><path d="M331 259c1 1 2 2 1 4l-2 5-5 6a92 92 0 0 1-33 20c-8 2-15 3-21 1-4 0-8-3-11-7s-4-8-3-13c2-8 6-15 14-21 6-5 13-9 22-12l12-2 7 4c1 2 2 5 1 8-1 5-5 10-12 15l-3 2-2 1c-4 3-9 5-15 7l4 3h5l4-1a72 72 0 0 0 13-6c5-3 16-21 20-24 2-2-2 12 1 11l3-1Zm-53 10 2-1 3-2 11-6 2-2v-3l-2-2h-3l-3 1a20 20 0 0 0-6 5l-4 5v5Z" class="cls-3"/><path d="M369 263c0 3 1 5 3 5 4 0 11-7 18-14l2 1c3-3 5-4 7-4l4 1v3c0 3-1 6-4 10-5 6-10 11-18 17s-15 9-21 9c-4 0-6-3-7-9l-1-4-1-5h-2l-4 2-4 4a1574 1574 0 0 1-22 16h-4l-2-2-3-6c1-12 3-22 7-31 3-6 6-10 10-12 2-2 5-2 7-3 4 0 7 2 6 5l-3 11-2 3-1 5 1 1c1 0 2 0 3-2l9-8 5-5c5-4 11-7 13-7l4 2c2 2 1 4 1 6v8l-1 3Z" class="cls-3"/><path d="M405 260c-5 4-7 7-7 11 0 1 1 2 3 2 1 0 6-2 11-6l5-3 7-7 3-9c4-12 8-22 12-29 5-10 11-18 18-18h7c2 2 4 4 4 7l-2 7-4 8-4 8-7 9-5 7-4 14c0 6 2 8 5 8 2 0 6-3 11-8l8-6c3-4 6-6 10-8h2c2-1 3 0 3 2l-7 14c-3 5-9 10-17 18-10 8-18 12-23 12-4 0-7-2-9-6l-2-10-5 4c-13 10-24 14-30 15-5 0-8-3-11-7-2-3-2-7-2-12 1-6 3-10 6-15 7-8 8-8 13-12 4-3 19-9 20-9l3 1 3 1 3 5c0 2 0 3-2 4" class="cls-3"/><path d="m460 274-2-1-2-1c-1-2-3-1-3-4s7-9 9-15c5-10 13-16 16-18 6-3 7-4 11-4 3 0 5 1 6 3l1 1 2 2 3-1 9-1 4-1 2 1 3 2c2 2 3 5 2 7 0 3-3 8-10 14l-4 4-5 6 1 3h5l5-3 6-3 13-9 6-5 8-4 4 1 2 3-4 7-6 8a198 198 0 0 1-23 19l-10 5c-8 4-15 6-21 6-8 0-13-2-15-7l-1-5 2-5 2-6 8-11 4-5-1-2h-4l-4 4-7 6c-6 6-10 9-12 9ZM269 314h-73c-9 0-16-8-16-17v-82c0-9 7-17 16-17l84 1-9 10h-75c-3 0-6 3-6 6v82c0 3 3 6 6 6h73c3 0 4-1 5-4h6l4-1v2c-1 8-7 14-15 14Z" class="cls-3"/><path d="m285 242-3 1-4 2-3 2v-5l3-5 3-3 4-5v13Z" class="cls-3"/><path d="M199 263a104 104 0 0 1 12 9c1 1-2-2 0-1v1a83 83 0 0 1 12 13l-1-1 4 5 2 6c1 3 4 4 7 4s5-1 6-4a191 191 0 0 1 24-45l2-3-1 1 1-1 1-1a406 406 0 0 1 32-38l1-1-1 1 1-1a96 96 0 0 1 16-10h-2l2-1c2 0 4-3 5-4l1-6c-1-4-3-10-11-6-9 4-16 10-24 17l-17 18-8 11a392 392 0 0 0-27 43l-8 17h13c-3-8-8-15-14-21-6-7-13-12-21-16-3-3-8-2-10 3-2 4-1 9 3 11Z" class="cls-3"/></svg>