<svg xmlns="http://www.w3.org/2000/svg" id="Layer_7" data-name="Layer 7" viewBox="0 0 769.5 762.9"><defs><linearGradient id="linear-gradient" x1="384.7" x2="384.7" y1="241.6" y2="752.9" gradientUnits="userSpaceOnUse"><stop offset="0" stop-color="#fff" stop-opacity=".5"/><stop offset="1" stop-color="#cbeaf5"/></linearGradient><style>.cls-3{stroke-width:0;fill:#3ebfef}</style></defs><path d="M589 753H175L0 242h769L589 753z" style="stroke-width:0;fill:url(#linear-gradient)"/><path d="M579 763H189c-11 0-21-5-28-12-11-8-19-19-24-32l-13-36 519 2-7 24c-6 15-16 29-29 40-8 8-18 14-28 14Z" style="fill:#1e1e1e;stroke-width:0"/><path d="M575 716H193c-42 0-77-34-77-77l70-489c7-46 34-76 76-76h245c43 0 77 34 77 76l68 490c0 42-35 76-77 76Z" style="fill:#fff;stroke:#303131;stroke-miterlimit:10;stroke-width:19px"/><rect width="142" height="25.9" x="312.8" y="81.4" rx="13" ry="13" style="fill:#414242;stroke-width:0"/><path d="M354 340c2 0 2 1 2 4l-3 5-5 6a99 99 0 0 1-35 21c-8 3-16 3-22 2-5-1-9-4-12-8s-4-9-3-14c1-8 6-15 14-22 7-6 15-10 24-13l13-2 7 4c2 2 2 5 1 9-1 5-5 10-13 16l-3 2-2 1-16 8 5 3h5l5-2a74 74 0 0 0 13-6c5-3 17-22 21-26 3-2-2 13 1 12h3Zm-56 10 3-2 2-1 12-7 2-2v-4l-2-2c-1-1-2 0-3 1l-3 1a21 21 0 0 0-7 5l-3 6-1 5Z" class="cls-3"/><path d="M395 343c0 4 1 6 3 6 5 0 11-7 20-15l1 1c3-3 6-4 8-4l4 1v3c0 3-1 7-4 11-5 6-11 12-19 17-8 7-16 10-22 10-5 0-7-3-8-9l-1-4-1-6h-2l-4 3-5 4a1697 1697 0 0 1-24 17l-3-1-3-2c-2-2-2-4-2-6 0-12 3-23 7-33 3-6 6-10 11-13 2-2 4-2 7-3 4 0 7 2 7 6l-5 11-1 4-2 4 2 2 3-2 10-9 5-5c5-5 11-8 14-8l4 2c2 2 1 5 1 7v8l-1 3Z" class="cls-3"/><path d="M433 341c-5 3-8 6-7 11 0 1 1 2 3 2l12-6 5-4 8-7 3-10c4-12 8-22 13-31 5-10 11-18 19-19l7 1c3 2 4 4 4 6l-2 9-4 7-5 9-7 10-5 8c-2 6-4 10-4 14 0 6 1 9 5 9 2 0 6-3 12-8l8-7c4-4 7-7 11-8l2-1c2 0 3 1 3 3 0 3-3 8-7 15l-18 18c-11 9-19 13-25 13-4 0-7-2-9-6-2-2-2-6-3-11l-5 5c-14 11-25 15-32 15-5 0-9-2-11-7-3-4-2-7-2-13s2-11 6-16c7-8 8-8 14-12l21-10 3 1 3 2c3 1 4 3 4 5s-1 3-3 4" class="cls-3"/><path d="m492 355-2-1-2-1c-1-2-3-1-3-4 0-4 7-9 9-16 6-11 14-17 17-19 7-4 7-4 11-4 4-1 6 0 8 2v2l2 1h4l9-1 4-1 3 1 3 2c2 2 2 5 2 8s-4 7-10 14l-5 5c-4 3-5 6-5 6l1 3 2 1 4-1 4-3 7-4 13-9 6-5 10-5 4 1c1 1 2 2 1 4l-3 8-7 8a202 202 0 0 1-24 20l-11 6c-8 4-16 6-22 6-9 0-15-3-16-8l-1-5 1-6 3-6 9-12 4-5-1-2h-4c-1 0-3 1-5 4l-7 6c-7 7-11 10-13 10ZM289 398h-79c-9 0-16-8-16-18v-87c0-10 7-19 16-19l91 1-11 11h-80c-3 0-6 3-6 7v87c0 3 3 6 6 6h79c2 0 4-1 5-4v-1a13 13 0 0 0 5 1h1l5-1v2c-1 8-8 15-16 15Z" class="cls-3"/><path d="m305 321-3 1-4 2-3 3v-6l3-5 3-4 4-5v14Z" class="cls-3"/><path d="M214 344a109 109 0 0 1 12 9c2 1-1-2 0 0h1a90 90 0 0 1 12 13c0 1 1 2 0 0l3 6 3 6c1 2 4 4 7 4s6-2 7-4a203 203 0 0 1 25-48l2-3 1-2a372 372 0 0 1 34-40l2-1h-1 1a124 124 0 0 1 17-11l-2 1 2-1 5-5 1-6c-1-4-3-11-11-7-10 5-18 11-26 18-7 6-13 13-18 20l-9 11a417 417 0 0 0-29 46l-8 18h14c-4-8-9-16-16-23-6-6-13-12-21-17-4-2-9-1-11 3-2 5-1 10 3 13Z" class="cls-3"/></svg>